<?xml version="1.0" encoding="UTF-8"?>
<svg xmlns="http://www.w3.org/2000/svg" viewBox="0 0 512 512" width="512" height="512">
  <title>JUGAAD App Icon ┬╖ Animated</title>
  
<style><![CDATA[
  .orbit { transform-origin: 256px 256px; animation: jg-orbit 26s linear infinite; }
  .ring  { transform-origin: 256px 256px; animation: jg-orbit 80s linear infinite reverse; }
  .letter{ transform-origin: 256px 256px; animation: jg-pulse 4.6s ease-in-out infinite; }
  @keyframes jg-orbit { from { transform: rotate(0); } to { transform: rotate(360deg); } }
  @keyframes jg-pulse { 0%,100% { transform: scale(1); } 50% { transform: scale(1.035); } }
]]></style>
  
<defs>
  <linearGradient id="bg" x1="0" y1="0" x2="1" y2="1">
    <stop offset="0%"   stop-color="#2A3CE8"/>
    <stop offset="55%"  stop-color="#5B45F0"/>
    <stop offset="100%" stop-color="#9333EA"/>
  </linearGradient>
  <radialGradient id="gloss" cx="30%" cy="20%" r="60%">
    <stop offset="0%"  stop-color="#ffffff" stop-opacity="0.35"/>
    <stop offset="60%" stop-color="#ffffff" stop-opacity="0"/>
  </radialGradient>
  <radialGradient id="glow" cx="50%" cy="55%" r="45%">
    <stop offset="0%"   stop-color="#ffffff" stop-opacity="0.18"/>
    <stop offset="100%" stop-color="#ffffff" stop-opacity="0"/>
  </radialGradient>
  <filter id="jshadow" x="-20%" y="-20%" width="140%" height="140%">
    <feGaussianBlur in="SourceAlpha" stdDeviation="6"/>
    <feOffset dx="0" dy="6" result="off"/>
    <feComponentTransfer><feFuncA type="linear" slope="0.35"/></feComponentTransfer>
    <feMerge><feMergeNode/><feMergeNode in="SourceGraphic"/></feMerge>
  </filter>
  <clipPath id="squircle"><rect x="0" y="0" width="512" height="512" rx="120" ry="120"/></clipPath>
</defs>
  <g clip-path="url(#squircle)">
    <rect width="512" height="512" fill="url(#bg)"/>
    <rect width="512" height="512" fill="url(#glow)"/>
    <rect width="512" height="512" fill="url(#gloss)"/>
    <g opacity="0.18" fill="#ffffff"><circle cx="0" cy="0" r="0.6"/><circle cx="79" cy="137" r="1.6"/><circle cx="158" cy="274" r="2.6"/><circle cx="237" cy="411" r="0.6"/><circle cx="316" cy="36" r="1.6"/><circle cx="395" cy="173" r="2.6"/><circle cx="474" cy="310" r="0.6"/><circle cx="41" cy="447" r="1.6"/><circle cx="120" cy="72" r="2.6"/><circle cx="199" cy="209" r="0.6"/><circle cx="278" cy="346" r="1.6"/><circle cx="357" cy="483" r="2.6"/><circle cx="436" cy="108" r="0.6"/><circle cx="3" cy="245" r="1.6"/><circle cx="82" cy="382" r="2.6"/><circle cx="161" cy="7" r="0.6"/><circle cx="240" cy="144" r="1.6"/><circle cx="319" cy="281" r="2.6"/><circle cx="398" cy="418" r="0.6"/><circle cx="477" cy="43" r="1.6"/><circle cx="44" cy="180" r="2.6"/><circle cx="123" cy="317" r="0.6"/><circle cx="202" cy="454" r="1.6"/><circle cx="281" cy="79" r="2.6"/></g>
    <circle class="ring" cx="256" cy="256" r="188" fill="none" stroke="#A5B4FC" stroke-opacity="0.55" stroke-width="2.5" stroke-dasharray="5 9"/>
    <g class="orbit">
      
    <g transform="translate(256 68)">
      <circle r="22" fill="#ffffff" fill-opacity="0.06"/>
      <g stroke="#22D3A6" fill="none" stroke-width="6" stroke-linecap="round" stroke-linejoin="round" color="#22D3A6">
        <path d="M -22 -16 L -14 -16 L -8 8 L 16 8 L 22 -10 L -10 -10"/><circle cx="-6" cy="18" r="3"/><circle cx="14" cy="18" r="3"/>
      </g>
    </g>

    <g transform="translate(388.94 123.06)">
      <circle r="22" fill="#ffffff" fill-opacity="0.06"/>
      <g stroke="#FBBF24" fill="none" stroke-width="6" stroke-linecap="round" stroke-linejoin="round" color="#FBBF24">
        <path d="M -8 -22 Q -8 -16 -2 -16"/><path d="M 0 -22 Q 0 -16 6 -16"/><path d="M -22 0 Q 0 -22 22 0 Z"/><path d="M -26 6 L 26 6"/>
      </g>
    </g>

    <g transform="translate(444 256)">
      <circle r="22" fill="#ffffff" fill-opacity="0.06"/>
      <g stroke="#A78BFA" fill="none" stroke-width="6" stroke-linecap="round" stroke-linejoin="round" color="#A78BFA">
        <rect x="-20" y="-16" width="40" height="36" rx="4"/><path d="M -20 -6 L 20 -6"/><path d="M -10 -22 L -10 -10"/><path d="M 10 -22 L 10 -10"/><circle cx="-6" cy="6" r="1.5" fill="currentColor" stroke="none"/><circle cx="6" cy="6" r="1.5" fill="currentColor" stroke="none"/>
      </g>
    </g>

    <g transform="translate(388.94 388.94)">
      <circle r="22" fill="#ffffff" fill-opacity="0.06"/>
      <g stroke="#60A5FA" fill="none" stroke-width="6" stroke-linecap="round" stroke-linejoin="round" color="#60A5FA">
        <path d="M -16 -22 L 10 -22 L 20 -12 L 20 22 L -16 22 Z"/><path d="M 10 -22 L 10 -12 L 20 -12"/><path d="M -8 4 L 12 4"/><path d="M -8 14 L 12 14"/>
      </g>
    </g>

    <g transform="translate(256 444)">
      <circle r="22" fill="#ffffff" fill-opacity="0.06"/>
      <g stroke="#F59E0B" fill="none" stroke-width="6" stroke-linecap="round" stroke-linejoin="round" color="#F59E0B">
        <path d="M -22 -14 L -6 -14 L -2 -8 L 22 -8 L 22 18 L -22 18 Z"/>
      </g>
    </g>

    <g transform="translate(123.06 388.94)">
      <circle r="22" fill="#ffffff" fill-opacity="0.06"/>
      <g stroke="#2DD4BF" fill="none" stroke-width="6" stroke-linecap="round" stroke-linejoin="round" color="#2DD4BF">
        <path d="M 0 -22 L 18 -16 L 18 4 Q 18 18 0 22 Q -18 18 -18 4 L -18 -16 Z"/><path d="M -8 0 L -2 6 L 10 -6"/>
      </g>
    </g>

    <g transform="translate(68 256)">
      <circle r="22" fill="#ffffff" fill-opacity="0.06"/>
      <g stroke="#FB7185" fill="none" stroke-width="6" stroke-linecap="round" stroke-linejoin="round" color="#FB7185">
        <path d="M -16 8 Q -16 -16 0 -18 Q 16 -16 16 8 L 20 14 L -20 14 Z"/><path d="M -4 18 Q 0 22 4 18"/><path d="M 0 -22 L 0 -18"/>
      </g>
    </g>

    <g transform="translate(123.06 123.06)">
      <circle r="22" fill="#ffffff" fill-opacity="0.06"/>
      <g stroke="#7DD3FC" fill="none" stroke-width="6" stroke-linecap="round" stroke-linejoin="round" color="#7DD3FC">
        <path d="M -14 -22 L 14 -22 L 14 22 L 8 18 L 2 22 L -4 18 L -10 22 L -14 18 Z"/><path d="M -8 -12 L 8 -12"/><path d="M -8 -4 L 4 -4"/><path d="M -4 -4 Q 4 -4 4 4 Q 4 8 -4 8 L 4 14"/>
      </g>
    </g>
    </g>
    <g class="letter" filter="url(#jshadow)">
      <path d="M 178 138 L 334 138 Q 354 138 354 158 L 354 178 Q 354 198 334 198 L 290 198 L 290 312 Q 290 384 224 384 Q 158 384 158 312 L 158 296 Q 158 280 174 280 L 198 280 Q 214 280 214 296 L 214 312 Q 214 332 224 332 Q 234 332 234 312 L 234 198 L 178 198 Q 158 198 158 178 L 158 158 Q 158 138 178 138 Z" fill="#FFFFFF"/>
    </g>
  </g>
</svg>
